<mxfile host="app.diagrams.net" modified="2023-12-03T05:21:50.992Z" agent="Mozilla/5.0 (X11; Linux x86_64) AppleWebKit/537.36 (KHTML, like Gecko) Chrome/119.0.0.0 Safari/537.36" etag="zB-hx0z4AQAgp7Mcl7sc" version="22.1.5" type="device">
  <diagram name="Page-1" id="JUCtVhWqle9NzwRLekgV">
    <mxGraphModel dx="1833" dy="1209" grid="0" gridSize="10" guides="1" tooltips="1" connect="1" arrows="1" fold="1" page="0" pageScale="1" pageWidth="850" pageHeight="1100" math="0" shadow="0">
      <root>
        <mxCell id="0" />
        <mxCell id="1" parent="0" />
        <mxCell id="4xGbrGpzxJWO4ZpGP4r--1" value="Pesan" style="rounded=0;whiteSpace=wrap;html=1;fontSize=16;" vertex="1" parent="1">
          <mxGeometry x="-31" y="-115" width="51" height="251" as="geometry" />
        </mxCell>
        <mxCell id="4xGbrGpzxJWO4ZpGP4r--2" value="Algoritme&lt;br&gt;MAC" style="rounded=0;whiteSpace=wrap;html=1;fontSize=16;" vertex="1" parent="1">
          <mxGeometry x="-60.5" y="181" width="110" height="50" as="geometry" />
        </mxCell>
        <mxCell id="4xGbrGpzxJWO4ZpGP4r--4" value="" style="edgeStyle=none;orthogonalLoop=1;jettySize=auto;html=1;rounded=0;fontSize=12;startSize=8;endSize=8;curved=1;exitX=0.5;exitY=1;exitDx=0;exitDy=0;entryX=0.5;entryY=0;entryDx=0;entryDy=0;" edge="1" parent="1" source="4xGbrGpzxJWO4ZpGP4r--1" target="4xGbrGpzxJWO4ZpGP4r--2">
          <mxGeometry width="120" relative="1" as="geometry">
            <mxPoint x="390" y="200" as="sourcePoint" />
            <mxPoint x="510" y="200" as="targetPoint" />
            <Array as="points" />
          </mxGeometry>
        </mxCell>
        <mxCell id="4xGbrGpzxJWO4ZpGP4r--5" value="K" style="text;strokeColor=none;fillColor=none;html=1;align=center;verticalAlign=middle;whiteSpace=wrap;rounded=0;fontSize=16;" vertex="1" parent="1">
          <mxGeometry x="-35.5" y="273" width="60" height="30" as="geometry" />
        </mxCell>
        <mxCell id="4xGbrGpzxJWO4ZpGP4r--6" value="" style="edgeStyle=none;orthogonalLoop=1;jettySize=auto;html=1;rounded=0;fontSize=12;startSize=8;endSize=8;curved=1;exitX=0.5;exitY=0;exitDx=0;exitDy=0;entryX=0.5;entryY=1;entryDx=0;entryDy=0;" edge="1" parent="1" source="4xGbrGpzxJWO4ZpGP4r--5" target="4xGbrGpzxJWO4ZpGP4r--2">
          <mxGeometry width="120" relative="1" as="geometry">
            <mxPoint x="390" y="200" as="sourcePoint" />
            <mxPoint x="510" y="200" as="targetPoint" />
            <Array as="points" />
          </mxGeometry>
        </mxCell>
        <mxCell id="4xGbrGpzxJWO4ZpGP4r--10" value="" style="edgeStyle=none;orthogonalLoop=1;jettySize=auto;html=1;rounded=0;fontSize=12;startSize=8;endSize=8;curved=1;entryX=0;entryY=0.5;entryDx=0;entryDy=0;exitX=1;exitY=0.5;exitDx=0;exitDy=0;" edge="1" parent="1" source="4xGbrGpzxJWO4ZpGP4r--2" target="4xGbrGpzxJWO4ZpGP4r--8">
          <mxGeometry width="120" relative="1" as="geometry">
            <mxPoint x="69" y="209" as="sourcePoint" />
            <mxPoint x="190.5" y="213" as="targetPoint" />
            <Array as="points" />
          </mxGeometry>
        </mxCell>
        <mxCell id="4xGbrGpzxJWO4ZpGP4r--16" value="" style="group" vertex="1" connectable="0" parent="1">
          <mxGeometry x="174" y="-115" width="51" height="301" as="geometry" />
        </mxCell>
        <mxCell id="4xGbrGpzxJWO4ZpGP4r--8" value="MAC" style="rounded=0;whiteSpace=wrap;html=1;fontSize=16;" vertex="1" parent="4xGbrGpzxJWO4ZpGP4r--16">
          <mxGeometry y="251" width="50.5" height="50" as="geometry" />
        </mxCell>
        <mxCell id="4xGbrGpzxJWO4ZpGP4r--9" value="Pesan" style="rounded=0;whiteSpace=wrap;html=1;fontSize=16;" vertex="1" parent="4xGbrGpzxJWO4ZpGP4r--16">
          <mxGeometry width="51" height="251" as="geometry" />
        </mxCell>
        <mxCell id="4xGbrGpzxJWO4ZpGP4r--18" value="" style="edgeStyle=none;orthogonalLoop=1;jettySize=auto;html=1;rounded=0;fontSize=12;startSize=8;endSize=8;curved=1;strokeWidth=1;endArrow=none;endFill=0;dashed=1;" edge="1" parent="1">
          <mxGeometry width="120" relative="1" as="geometry">
            <mxPoint x="319.0033740234375" y="-145.99668701171873" as="sourcePoint" />
            <mxPoint x="319" y="347" as="targetPoint" />
            <Array as="points" />
          </mxGeometry>
        </mxCell>
        <mxCell id="4xGbrGpzxJWO4ZpGP4r--20" value="Algoritme&lt;br&gt;MAC" style="rounded=0;whiteSpace=wrap;html=1;fontSize=16;" vertex="1" parent="1">
          <mxGeometry x="594.5" y="-54.5" width="110" height="50" as="geometry" />
        </mxCell>
        <mxCell id="4xGbrGpzxJWO4ZpGP4r--25" value="" style="group" vertex="1" connectable="0" parent="1">
          <mxGeometry x="403" y="-115" width="51" height="301" as="geometry" />
        </mxCell>
        <mxCell id="4xGbrGpzxJWO4ZpGP4r--26" value="MAC" style="rounded=0;whiteSpace=wrap;html=1;fontSize=16;" vertex="1" parent="4xGbrGpzxJWO4ZpGP4r--25">
          <mxGeometry y="251" width="50.5" height="50" as="geometry" />
        </mxCell>
        <mxCell id="4xGbrGpzxJWO4ZpGP4r--27" value="Pesan" style="rounded=0;whiteSpace=wrap;html=1;fontSize=16;" vertex="1" parent="4xGbrGpzxJWO4ZpGP4r--25">
          <mxGeometry width="51" height="251" as="geometry" />
        </mxCell>
        <mxCell id="4xGbrGpzxJWO4ZpGP4r--28" value="" style="edgeStyle=none;orthogonalLoop=1;jettySize=auto;html=1;rounded=0;fontSize=12;startSize=8;endSize=8;curved=1;exitX=1;exitY=0.5;exitDx=0;exitDy=0;" edge="1" parent="1" source="4xGbrGpzxJWO4ZpGP4r--9">
          <mxGeometry width="120" relative="1" as="geometry">
            <mxPoint x="225" y="13" as="sourcePoint" />
            <mxPoint x="400" y="11" as="targetPoint" />
            <Array as="points" />
          </mxGeometry>
        </mxCell>
        <mxCell id="4xGbrGpzxJWO4ZpGP4r--30" value="Pesan Dikirim" style="edgeLabel;html=1;align=center;verticalAlign=middle;resizable=0;points=[];fontSize=16;" vertex="1" connectable="0" parent="4xGbrGpzxJWO4ZpGP4r--28">
          <mxGeometry x="0.454" y="-1" relative="1" as="geometry">
            <mxPoint x="-40" y="-21" as="offset" />
          </mxGeometry>
        </mxCell>
        <mxCell id="4xGbrGpzxJWO4ZpGP4r--31" value="" style="edgeStyle=none;orthogonalLoop=1;jettySize=auto;html=1;rounded=0;fontSize=12;startSize=8;endSize=8;curved=1;exitX=0.993;exitY=0.335;exitDx=0;exitDy=0;exitPerimeter=0;" edge="1" parent="1">
          <mxGeometry width="120" relative="1" as="geometry">
            <mxPoint x="447.00300000000004" y="-30.914999999999964" as="sourcePoint" />
            <mxPoint x="594.36" y="-29" as="targetPoint" />
            <Array as="points" />
          </mxGeometry>
        </mxCell>
        <mxCell id="4xGbrGpzxJWO4ZpGP4r--33" value="" style="edgeStyle=none;orthogonalLoop=1;jettySize=auto;html=1;rounded=0;fontSize=12;startSize=8;endSize=8;curved=1;entryX=1;entryY=0.5;entryDx=0;entryDy=0;" edge="1" parent="1" target="4xGbrGpzxJWO4ZpGP4r--20">
          <mxGeometry width="120" relative="1" as="geometry">
            <mxPoint x="759.5" y="-29" as="sourcePoint" />
            <mxPoint x="787.5" y="-60" as="targetPoint" />
            <Array as="points" />
          </mxGeometry>
        </mxCell>
        <mxCell id="4xGbrGpzxJWO4ZpGP4r--34" value="K" style="text;strokeColor=none;fillColor=none;html=1;align=center;verticalAlign=middle;whiteSpace=wrap;rounded=0;fontSize=16;" vertex="1" parent="1">
          <mxGeometry x="757.5" y="-44.5" width="29" height="30" as="geometry" />
        </mxCell>
        <mxCell id="4xGbrGpzxJWO4ZpGP4r--35" style="edgeStyle=none;curved=1;rounded=0;orthogonalLoop=1;jettySize=auto;html=1;exitX=0.75;exitY=0;exitDx=0;exitDy=0;fontSize=12;startSize=8;endSize=8;" edge="1" parent="1" source="4xGbrGpzxJWO4ZpGP4r--34" target="4xGbrGpzxJWO4ZpGP4r--34">
          <mxGeometry relative="1" as="geometry" />
        </mxCell>
        <mxCell id="4xGbrGpzxJWO4ZpGP4r--36" value="MAC" style="rounded=0;whiteSpace=wrap;html=1;fontSize=16;" vertex="1" parent="1">
          <mxGeometry x="594.5" y="29" width="110" height="50" as="geometry" />
        </mxCell>
        <mxCell id="4xGbrGpzxJWO4ZpGP4r--37" value="" style="edgeStyle=none;orthogonalLoop=1;jettySize=auto;html=1;rounded=0;fontSize=12;startSize=8;endSize=8;curved=1;" edge="1" parent="1" source="4xGbrGpzxJWO4ZpGP4r--20">
          <mxGeometry width="120" relative="1" as="geometry">
            <mxPoint x="649" y="-4.5" as="sourcePoint" />
            <mxPoint x="649.5" y="29" as="targetPoint" />
            <Array as="points" />
          </mxGeometry>
        </mxCell>
        <mxCell id="4xGbrGpzxJWO4ZpGP4r--38" value="" style="edgeStyle=none;orthogonalLoop=1;jettySize=auto;html=1;rounded=0;fontSize=12;startSize=8;endSize=8;curved=1;" edge="1" parent="1">
          <mxGeometry width="120" relative="1" as="geometry">
            <mxPoint x="454" y="164" as="sourcePoint" />
            <mxPoint x="574" y="164" as="targetPoint" />
            <Array as="points" />
          </mxGeometry>
        </mxCell>
        <mxCell id="4xGbrGpzxJWO4ZpGP4r--39" value="" style="edgeStyle=none;orthogonalLoop=1;jettySize=auto;html=1;rounded=0;fontSize=12;startSize=8;endSize=8;curved=1;exitX=0.5;exitY=1;exitDx=0;exitDy=0;entryX=0.5;entryY=0;entryDx=0;entryDy=0;" edge="1" parent="1" source="4xGbrGpzxJWO4ZpGP4r--36" target="4xGbrGpzxJWO4ZpGP4r--40">
          <mxGeometry width="120" relative="1" as="geometry">
            <mxPoint x="654.5" y="117.5" as="sourcePoint" />
            <mxPoint x="657" y="128" as="targetPoint" />
            <Array as="points" />
          </mxGeometry>
        </mxCell>
        <mxCell id="4xGbrGpzxJWO4ZpGP4r--40" value="Dibandingkan" style="text;strokeColor=none;fillColor=none;html=1;align=center;verticalAlign=middle;whiteSpace=wrap;rounded=0;fontSize=16;" vertex="1" parent="1">
          <mxGeometry x="591" y="147" width="117" height="30" as="geometry" />
        </mxCell>
      </root>
    </mxGraphModel>
  </diagram>
</mxfile>
